<svg xmlns="http://www.w3.org/2000/svg" viewBox="0 0 86 156" width="86" height="156" shape-rendering="crispEdges"><rect width="86" height="156" stroke="black" stroke-width="6" fill-opacity="0" /><g><rect width="10" height="10" x="18" y="8" /><rect width="10" height="10" x="38" y="8" /><rect width="10" height="10" x="58" y="8" /></g><g><rect width="10" height="10" x="8" y="18" /><rect width="10" height="10" x="28" y="18" /><rect width="10" height="10" x="38" y="18" /><rect width="10" height="10" x="48" y="18" /><rect width="10" height="10" x="68" y="18" /></g><g><rect width="10" height="10" x="18" y="28" /><rect width="10" height="10" x="38" y="28" /><rect width="10" height="10" x="58" y="28" /></g><g></g><g><rect width="10" height="10" x="8" y="48" /><rect width="10" height="10" x="28" y="48" /><rect width="10" height="10" x="48" y="48" /><rect width="10" height="10" x="68" y="48" /></g><g><rect width="10" height="10" x="8" y="58" /><rect width="10" height="10" x="18" y="58" /><rect width="10" height="10" x="28" y="58" /><rect width="10" height="10" x="38" y="58" /><rect width="10" height="10" x="48" y="58" /><rect width="10" height="10" x="58" y="58" /><rect width="10" height="10" x="68" y="58" /></g><g><rect width="10" height="10" x="18" y="68" /><rect width="10" height="10" x="58" y="68" /></g><g><rect width="10" height="10" x="18" y="78" /><rect width="10" height="10" x="58" y="78" /></g><g><rect width="10" height="10" x="28" y="88" /><rect width="10" height="10" x="48" y="88" /></g><g><rect width="10" height="10" x="8" y="98" /><rect width="10" height="10" x="68" y="98" /></g><g><rect width="10" height="10" x="8" y="108" /><rect width="10" height="10" x="28" y="108" /><rect width="10" height="10" x="48" y="108" /><rect width="10" height="10" x="68" y="108" /></g><g><rect width="10" height="10" x="8" y="118" /><rect width="10" height="10" x="68" y="118" /></g><g><rect width="10" height="10" x="8" y="128" /><rect width="10" height="10" x="28" y="128" /><rect width="10" height="10" x="38" y="128" /><rect width="10" height="10" x="48" y="128" /><rect width="10" height="10" x="68" y="128" /></g><g><rect width="10" height="10" x="8" y="138" /><rect width="10" height="10" x="28" y="138" /><rect width="10" height="10" x="48" y="138" /><rect width="10" height="10" x="68" y="138" /></g></svg>