<svg xmlns="http://www.w3.org/2000/svg" viewBox="0 0 866 1566" width="866" height="1566" shape-rendering="crispEdges"><rect width="866" height="1566" stroke="black" stroke-width="66" fill-opacity="0" /><g><rect width="100" height="100" x="83" y="83" /><rect width="100" height="100" x="683" y="83" /></g><g><rect width="100" height="100" x="83" y="183" /><rect width="100" height="100" x="283" y="183" /><rect width="100" height="100" x="383" y="183" /><rect width="100" height="100" x="483" y="183" /><rect width="100" height="100" x="683" y="183" /></g><g><rect width="100" height="100" x="383" y="283" /></g><g><rect width="100" height="100" x="83" y="383" /><rect width="100" height="100" x="183" y="383" /><rect width="100" height="100" x="283" y="383" /><rect width="100" height="100" x="383" y="383" /><rect width="100" height="100" x="483" y="383" /><rect width="100" height="100" x="583" y="383" /><rect width="100" height="100" x="683" y="383" /></g><g><rect width="100" height="100" x="383" y="483" /></g><g><rect width="100" height="100" x="83" y="583" /><rect width="100" height="100" x="183" y="583" /><rect width="100" height="100" x="283" y="583" /><rect width="100" height="100" x="383" y="583" /><rect width="100" height="100" x="483" y="583" /><rect width="100" height="100" x="583" y="583" /><rect width="100" height="100" x="683" y="583" /></g><g><rect width="100" height="100" x="83" y="683" /><rect width="100" height="100" x="183" y="683" /><rect width="100" height="100" x="383" y="683" /><rect width="100" height="100" x="583" y="683" /><rect width="100" height="100" x="683" y="683" /></g><g><rect width="100" height="100" x="183" y="783" /><rect width="100" height="100" x="283" y="783" /><rect width="100" height="100" x="483" y="783" /><rect width="100" height="100" x="583" y="783" /></g><g><rect width="100" height="100" x="183" y="883" /><rect width="100" height="100" x="283" y="883" /><rect width="100" height="100" x="383" y="883" /><rect width="100" height="100" x="483" y="883" /><rect width="100" height="100" x="583" y="883" /></g><g><rect width="100" height="100" x="83" y="983" /><rect width="100" height="100" x="183" y="983" /><rect width="100" height="100" x="283" y="983" /><rect width="100" height="100" x="383" y="983" /><rect width="100" height="100" x="483" y="983" /><rect width="100" height="100" x="583" y="983" /><rect width="100" height="100" x="683" y="983" /></g><g><rect width="100" height="100" x="83" y="1083" /><rect width="100" height="100" x="183" y="1083" /><rect width="100" height="100" x="583" y="1083" /><rect width="100" height="100" x="683" y="1083" /></g><g><rect width="100" height="100" x="83" y="1183" /><rect width="100" height="100" x="683" y="1183" /></g><g><rect width="100" height="100" x="83" y="1283" /><rect width="100" height="100" x="283" y="1283" /><rect width="100" height="100" x="383" y="1283" /><rect width="100" height="100" x="483" y="1283" /><rect width="100" height="100" x="683" y="1283" /></g><g><rect width="100" height="100" x="83" y="1383" /><rect width="100" height="100" x="183" y="1383" /><rect width="100" height="100" x="283" y="1383" /><rect width="100" height="100" x="483" y="1383" /><rect width="100" height="100" x="583" y="1383" /><rect width="100" height="100" x="683" y="1383" /></g></svg>