<svg xmlns="http://www.w3.org/2000/svg" viewBox="0 0 1766 966" width="1766" height="966" shape-rendering="crispEdges"><rect width="1766" height="966" stroke="black" stroke-width="66" fill-opacity="0" /><g><rect width="100" height="100" x="283" y="83" /><rect width="100" height="100" x="383" y="83" /><rect width="100" height="100" x="1383" y="83" /><rect width="100" height="100" x="1483" y="83" /></g><g><rect width="100" height="100" x="83" y="183" /><rect width="100" height="100" x="183" y="183" /><rect width="100" height="100" x="383" y="183" /><rect width="100" height="100" x="483" y="183" /><rect width="100" height="100" x="583" y="183" /><rect width="100" height="100" x="883" y="183" /><rect width="100" height="100" x="983" y="183" /><rect width="100" height="100" x="1183" y="183" /><rect width="100" height="100" x="1283" y="183" /><rect width="100" height="100" x="1483" y="183" /><rect width="100" height="100" x="1583" y="183" /></g><g><rect width="100" height="100" x="83" y="283" /><rect width="100" height="100" x="283" y="283" /><rect width="100" height="100" x="383" y="283" /><rect width="100" height="100" x="683" y="283" /><rect width="100" height="100" x="883" y="283" /><rect width="100" height="100" x="983" y="283" /><rect width="100" height="100" x="1083" y="283" /><rect width="100" height="100" x="1183" y="283" /><rect width="100" height="100" x="1283" y="283" /><rect width="100" height="100" x="1483" y="283" /><rect width="100" height="100" x="1583" y="283" /></g><g><rect width="100" height="100" x="583" y="383" /><rect width="100" height="100" x="683" y="383" /><rect width="100" height="100" x="883" y="383" /><rect width="100" height="100" x="983" y="383" /><rect width="100" height="100" x="1283" y="383" /><rect width="100" height="100" x="1483" y="383" /><rect width="100" height="100" x="1583" y="383" /></g><g><rect width="100" height="100" x="283" y="483" /><rect width="100" height="100" x="583" y="483" /><rect width="100" height="100" x="883" y="483" /><rect width="100" height="100" x="1183" y="483" /><rect width="100" height="100" x="1283" y="483" /><rect width="100" height="100" x="1583" y="483" /></g><g><rect width="100" height="100" x="383" y="583" /><rect width="100" height="100" x="483" y="583" /><rect width="100" height="100" x="683" y="583" /><rect width="100" height="100" x="783" y="583" /><rect width="100" height="100" x="883" y="583" /><rect width="100" height="100" x="1483" y="583" /></g><g><rect width="100" height="100" x="83" y="683" /><rect width="100" height="100" x="483" y="683" /><rect width="100" height="100" x="583" y="683" /><rect width="100" height="100" x="683" y="683" /><rect width="100" height="100" x="783" y="683" /><rect width="100" height="100" x="883" y="683" /><rect width="100" height="100" x="983" y="683" /><rect width="100" height="100" x="1083" y="683" /><rect width="100" height="100" x="1183" y="683" /><rect width="100" height="100" x="1283" y="683" /><rect width="100" height="100" x="1383" y="683" /><rect width="100" height="100" x="1483" y="683" /></g><g><rect width="100" height="100" x="83" y="783" /><rect width="100" height="100" x="183" y="783" /><rect width="100" height="100" x="283" y="783" /><rect width="100" height="100" x="383" y="783" /><rect width="100" height="100" x="683" y="783" /><rect width="100" height="100" x="883" y="783" /><rect width="100" height="100" x="983" y="783" /><rect width="100" height="100" x="1183" y="783" /><rect width="100" height="100" x="1283" y="783" /><rect width="100" height="100" x="1483" y="783" /><rect width="100" height="100" x="1583" y="783" /></g></svg>