<svg xmlns="http://www.w3.org/2000/svg" viewBox="0 0 176 96" width="176" height="96" shape-rendering="crispEdges"><rect width="176" height="96" stroke="black" stroke-width="6" fill-opacity="0" /><g><rect width="10" height="10" x="18" y="8" /><rect width="10" height="10" x="38" y="8" /><rect width="10" height="10" x="48" y="8" /><rect width="10" height="10" x="68" y="8" /><rect width="10" height="10" x="78" y="8" /><rect width="10" height="10" x="98" y="8" /><rect width="10" height="10" x="108" y="8" /><rect width="10" height="10" x="128" y="8" /><rect width="10" height="10" x="138" y="8" /><rect width="10" height="10" x="158" y="8" /></g><g><rect width="10" height="10" x="18" y="18" /><rect width="10" height="10" x="118" y="18" /><rect width="10" height="10" x="128" y="18" /><rect width="10" height="10" x="148" y="18" /></g><g><rect width="10" height="10" x="8" y="28" /><rect width="10" height="10" x="38" y="28" /><rect width="10" height="10" x="48" y="28" /><rect width="10" height="10" x="58" y="28" /><rect width="10" height="10" x="68" y="28" /><rect width="10" height="10" x="88" y="28" /><rect width="10" height="10" x="98" y="28" /><rect width="10" height="10" x="118" y="28" /><rect width="10" height="10" x="158" y="28" /></g><g><rect width="10" height="10" x="28" y="38" /><rect width="10" height="10" x="58" y="38" /><rect width="10" height="10" x="68" y="38" /><rect width="10" height="10" x="108" y="38" /><rect width="10" height="10" x="128" y="38" /><rect width="10" height="10" x="138" y="38" /><rect width="10" height="10" x="148" y="38" /><rect width="10" height="10" x="158" y="38" /></g><g><rect width="10" height="10" x="38" y="48" /><rect width="10" height="10" x="48" y="48" /><rect width="10" height="10" x="68" y="48" /><rect width="10" height="10" x="88" y="48" /><rect width="10" height="10" x="108" y="48" /><rect width="10" height="10" x="118" y="48" /><rect width="10" height="10" x="138" y="48" /></g><g><rect width="10" height="10" x="18" y="58" /><rect width="10" height="10" x="28" y="58" /><rect width="10" height="10" x="38" y="58" /><rect width="10" height="10" x="48" y="58" /><rect width="10" height="10" x="68" y="58" /><rect width="10" height="10" x="78" y="58" /><rect width="10" height="10" x="108" y="58" /><rect width="10" height="10" x="118" y="58" /><rect width="10" height="10" x="138" y="58" /></g><g><rect width="10" height="10" x="38" y="68" /><rect width="10" height="10" x="48" y="68" /><rect width="10" height="10" x="68" y="68" /><rect width="10" height="10" x="88" y="68" /><rect width="10" height="10" x="98" y="68" /><rect width="10" height="10" x="108" y="68" /><rect width="10" height="10" x="128" y="68" /><rect width="10" height="10" x="138" y="68" /><rect width="10" height="10" x="158" y="68" /></g><g><rect width="10" height="10" x="8" y="78" /><rect width="10" height="10" x="18" y="78" /><rect width="10" height="10" x="58" y="78" /><rect width="10" height="10" x="68" y="78" /><rect width="10" height="10" x="78" y="78" /><rect width="10" height="10" x="88" y="78" /><rect width="10" height="10" x="98" y="78" /><rect width="10" height="10" x="108" y="78" /><rect width="10" height="10" x="118" y="78" /><rect width="10" height="10" x="148" y="78" /></g></svg>