<svg xmlns="http://www.w3.org/2000/svg" viewBox="0 0 120 60" width="120" height="60" shape-rendering="crispEdges"><g><rect width="10" height="10" x="10" y="0" /><rect width="10" height="10" x="30" y="0" /><rect width="10" height="10" x="40" y="0" /><rect width="10" height="10" x="60" y="0" /><rect width="10" height="10" x="70" y="0" /><rect width="10" height="10" x="90" y="0" /><rect width="10" height="10" x="100" y="0" /></g><g><rect width="10" height="10" x="0" y="10" /><rect width="10" height="10" x="10" y="10" /><rect width="10" height="10" x="30" y="10" /><rect width="10" height="10" x="50" y="10" /></g><g><rect width="10" height="10" x="30" y="20" /><rect width="10" height="10" x="40" y="20" /><rect width="10" height="10" x="60" y="20" /><rect width="10" height="10" x="80" y="20" /><rect width="10" height="10" x="110" y="20" /></g><g><rect width="10" height="10" x="0" y="30" /><rect width="10" height="10" x="10" y="30" /><rect width="10" height="10" x="20" y="30" /><rect width="10" height="10" x="40" y="30" /><rect width="10" height="10" x="50" y="30" /><rect width="10" height="10" x="70" y="30" /><rect width="10" height="10" x="110" y="30" /></g><g><rect width="10" height="10" x="20" y="40" /><rect width="10" height="10" x="50" y="40" /><rect width="10" height="10" x="60" y="40" /><rect width="10" height="10" x="100" y="40" /></g><g><rect width="10" height="10" x="0" y="50" /><rect width="10" height="10" x="10" y="50" /><rect width="10" height="10" x="20" y="50" /><rect width="10" height="10" x="30" y="50" /><rect width="10" height="10" x="70" y="50" /><rect width="10" height="10" x="80" y="50" /><rect width="10" height="10" x="100" y="50" /></g></svg>