<svg xmlns="http://www.w3.org/2000/svg" viewBox="0 0 1200 600" width="1200" height="600" shape-rendering="crispEdges"><g><rect width="100" height="100" x="0" y="0" /><rect width="100" height="100" x="200" y="0" /><rect width="100" height="100" x="300" y="0" /><rect width="100" height="100" x="500" y="0" /><rect width="100" height="100" x="700" y="0" /><rect width="100" height="100" x="900" y="0" /></g><g><rect width="100" height="100" x="200" y="100" /><rect width="100" height="100" x="300" y="100" /><rect width="100" height="100" x="1100" y="100" /></g><g><rect width="100" height="100" x="100" y="200" /><rect width="100" height="100" x="200" y="200" /><rect width="100" height="100" x="300" y="200" /><rect width="100" height="100" x="500" y="200" /><rect width="100" height="100" x="900" y="200" /><rect width="100" height="100" x="1100" y="200" /></g><g><rect width="100" height="100" x="0" y="300" /><rect width="100" height="100" x="200" y="300" /><rect width="100" height="100" x="300" y="300" /><rect width="100" height="100" x="400" y="300" /><rect width="100" height="100" x="500" y="300" /><rect width="100" height="100" x="900" y="300" /></g><g><rect width="100" height="100" x="0" y="400" /><rect width="100" height="100" x="100" y="400" /><rect width="100" height="100" x="200" y="400" /><rect width="100" height="100" x="300" y="400" /><rect width="100" height="100" x="400" y="400" /><rect width="100" height="100" x="1100" y="400" /></g><g><rect width="100" height="100" x="100" y="500" /><rect width="100" height="100" x="500" y="500" /><rect width="100" height="100" x="600" y="500" /><rect width="100" height="100" x="700" y="500" /></g></svg>